<?xml version="1.0" standalone="no"?>
<!DOCTYPE svg PUBLIC "-//W3C//DTD SVG 20010904//EN"
 "http://www.w3.org/TR/2001/REC-SVG-20010904/DTD/svg10.dtd">
<svg version="1.0" xmlns="http://www.w3.org/2000/svg"
 width="260.000000pt" height="260.000000pt" viewBox="0 0 260.000000 260.000000"
 preserveAspectRatio="xMidYMid meet">
<metadata>
Created by potrace 1.14, written by Peter Selinger 2001-2017
</metadata>
<g transform="translate(0.000000,260.000000) scale(0.100000,-0.100000)"
fill="#000000" stroke="none">
<path d="M517 2585 c-184 -37 -364 -177 -446 -347 -71 -146 -71 -150 -71 -938
0 -790 0 -795 71 -940 76 -155 231 -283 404 -337 56 -17 111 -18 825 -18 714
0 769 1 825 18 212 65 380 232 451 447 17 51 19 111 22 789 3 832 3 833 -69
981 -85 172 -264 309 -454 345 -108 21 -1454 20 -1558 0z m1584 -710 c106 -38
158 -117 167 -252 l5 -83 -102 0 -101 0 0 55 c0 47 -4 60 -26 82 -22 22 -32
25 -71 20 -25 -2 -52 -12 -61 -21 -17 -17 -29 -127 -18 -169 9 -36 51 -73 128
-113 149 -75 188 -106 226 -179 25 -47 27 -58 27 -185 0 -120 -3 -141 -23
-185 -13 -27 -35 -62 -49 -77 -62 -64 -210 -95 -314 -64 -122 35 -185 119
-196 260 l-6 76 102 0 101 0 0 -47 c0 -71 33 -108 95 -108 39 0 51 5 72 29 23
27 25 35 21 122 -4 113 -6 115 -146 192 -57 31 -121 71 -142 89 -59 50 -91
126 -97 225 -11 173 49 289 173 333 53 19 181 19 235 0z m-1241 -90 l0 -95
-162 -2 -163 -3 0 -150 0 -150 143 -3 142 -3 0 -94 0 -95 -145 0 -145 0 0
-145 0 -145 165 0 165 0 0 -100 0 -100 -265 0 -265 0 0 590 0 590 265 0 265 0
0 -95z m389 -264 l126 -355 3 357 2 357 90 0 90 0 0 -590 0 -590 -79 0 -79 0
-123 332 -124 331 -3 -331 -2 -332 -95 0 -95 0 0 590 0 591 81 -3 82 -3 126
-354z"/>
</g>
</svg>
